<svg width="172" height="17" viewBox="0 0 172 17" fill="none" xmlns="http://www.w3.org/2000/svg">
<g clip-path="url(#clip0_168_9038)">
<path fill-rule="evenodd" clip-rule="evenodd" d="M28.0037 16.5801L34.6248 8.50217L41.2411 0.419678H28.0037H14.7664L21.3827 8.50217L28.0037 16.5801Z" fill="#1F64B0"/>
<path fill-rule="evenodd" clip-rule="evenodd" d="M13.2374 16.5801L19.8584 8.50217L26.4747 0.419678H13.2374H0L6.62106 8.50217L13.2374 16.5801Z" fill="#7DCCF3"/>
<path fill-rule="evenodd" clip-rule="evenodd" d="M20.6205 7.57029L26.4747 0.419678H14.7664L20.6205 7.57029Z" fill="#4593D0"/>
<path d="M47.4478 0.230713V16.7694" stroke="#09157E" stroke-width="0.91" stroke-miterlimit="22.93"/>
<path d="M162.421 7.17382C161.402 6.77707 157.658 6.25116 157.658 4.72878C157.658 3.61697 159.058 3.29403 159.901 3.29403C160.682 3.26681 161.448 3.50329 162.068 3.96297C162.302 4.16703 162.486 4.41924 162.607 4.7011C162.735 5.02403 162.811 5.37002 163.293 5.37002H165.793C166.384 5.37002 166.536 5.27314 166.536 4.67802C166.536 1.41642 162.988 -0.0183105 159.749 -0.0183105C156.557 0.106248 153.556 1.68861 153.556 4.89947C153.556 8.04112 155.938 9.02837 158.51 9.81724C160.678 10.4862 162.945 10.5092 162.945 11.8932C162.945 13.2772 161.825 13.5725 160.449 13.5725C159.496 13.5725 158.458 13.351 157.948 12.7605C157.675 12.4842 157.507 12.1264 157.472 11.7456C157.419 11.1274 157.138 11.0536 156.552 11.0536H154.08C153.49 11.0536 153.337 11.1782 153.337 11.7456C153.337 15.2056 157.01 16.9817 160.201 16.9817C164.131 16.9817 166.989 15.3024 166.989 11.7963C166.989 8.43324 164.283 7.71818 162.445 7.18304L162.421 7.17382ZM152.542 15.833L148.945 10.7583C149.978 10.3784 150.868 9.70594 151.5 8.82874C152.132 7.95153 152.477 6.91023 152.489 5.84057C152.519 5.13156 152.404 4.42384 152.151 3.75804C151.897 3.09224 151.51 2.48147 151.013 1.9608C149.941 0.922806 148.717 0.378426 145.935 0.378426H139.504C138.918 0.378426 138.79 0.65061 138.79 1.0981V15.9391C138.79 16.5065 139.047 16.6541 139.504 16.6541H142.029C142.505 16.6541 142.772 16.5065 142.772 15.9391V3.85686H146.164C147.493 3.85686 148.512 4.6734 148.512 5.9559C148.512 7.11845 147.335 7.95808 146.087 7.95808H145.578C144.992 7.95808 144.835 8.23026 144.835 8.67314V10.6522C144.835 11.3442 144.887 11.6164 145.116 11.9117L147.874 15.8883C147.989 16.1192 148.171 16.3124 148.397 16.4444C148.624 16.5763 148.886 16.6412 149.15 16.6311H152.161C152.618 16.6311 152.747 16.1882 152.518 15.8422L152.542 15.833ZM136.184 13.1711H128.044V9.9095H134.884C135.47 9.9095 135.622 9.63732 135.622 9.19444V7.26609C135.622 6.80476 135.47 6.55102 134.884 6.55102H128.044V3.85686H135.751C136.337 3.85686 136.489 3.58468 136.489 3.1418V1.08888C136.489 0.627548 136.337 0.373823 135.751 0.373823H124.752C124.166 0.373823 124.014 0.646001 124.014 1.08888V15.9391C124.014 16.4004 124.166 16.6541 124.752 16.6541H136.184C136.77 16.6541 136.923 16.382 136.923 15.9391V13.9138C136.923 13.4433 136.77 13.1711 136.184 13.1711ZM118.012 6.27884V10.7261C118.012 12.3084 116.84 13.1988 115.154 13.1988H112.706V3.80612H115.154C116.817 3.80612 118.012 4.71954 118.012 6.27884ZM115.154 0.373823H109.438C108.852 0.373823 108.7 0.646001 108.7 1.08888V15.9391C108.7 16.4004 108.852 16.6541 109.438 16.6541H115.154C118.188 16.6541 122.018 14.9749 122.018 11.0951V5.93284C121.994 2.09919 118.165 0.373823 115.154 0.373823ZM105.427 0.373823H102.979C102.503 0.373823 102.241 0.521442 102.241 1.08888V9.665L96.8295 1.21343C96.5008 0.719809 96.3198 0.373823 95.6815 0.373823H93.2998C92.7092 0.373823 92.5568 0.646001 92.5568 1.08888V15.9391C92.5568 16.5065 92.8378 16.6541 93.2998 16.6541H95.8244C96.3008 16.6541 96.5627 16.5065 96.5627 15.9391V7.31683L101.974 15.7915C102.303 16.2851 102.484 16.6311 103.122 16.6311H105.442C106.028 16.6311 106.185 16.3589 106.185 15.916V1.08888C106.147 0.521442 105.866 0.373823 105.404 0.373823H105.427ZM86.5168 5.93284V11.0721C86.5168 12.6544 85.345 13.5678 83.6588 13.5678C81.9726 13.5678 80.8294 12.6452 80.8294 11.0721V5.93284C80.8294 4.35048 82.0012 3.43704 83.6588 3.43704C85.3165 3.43704 86.493 4.35048 86.493 5.93284H86.5168ZM90.5228 11.4181V5.58684C90.5228 1.68399 86.7121 0.000146585 83.6588 0.000146585C80.6055 0.000146585 76.8472 1.68399 76.8472 5.58684V11.4181C76.8472 15.3209 80.6246 17.0001 83.6588 17.0001C86.6931 17.0001 90.499 15.3209 90.499 11.4181H90.5228ZM75.6945 0.373823H72.9889C72.7472 0.355015 72.5073 0.426141 72.3179 0.572712C72.1285 0.719283 72.0039 0.930269 71.9696 1.16269L69.4259 9.5635L66.9442 1.17653C66.8442 0.830534 66.6632 0.387662 66.1011 0.387662H64.3196C63.7289 0.387662 63.5527 0.848988 63.4479 1.17653L60.9995 9.57734L58.4702 1.17653C58.4358 0.944108 58.3113 0.733122 58.1219 0.586551C57.9325 0.43998 57.6925 0.368854 57.4508 0.387662H54.6595C54.1832 0.387662 54.1213 0.807466 54.1832 1.10272L58.9037 16.1282C58.9437 16.2762 59.0331 16.4071 59.1581 16.5006C59.283 16.594 59.4364 16.6448 59.5943 16.6449H61.8379C62.0192 16.6504 62.1973 16.5977 62.3446 16.4951C62.4919 16.3925 62.6001 16.2457 62.6524 16.0775L65.2056 8.19335L67.7587 16.0775C67.8111 16.2457 67.9193 16.3925 68.0666 16.4951C68.2138 16.5977 68.392 16.6504 68.5733 16.6449H70.7168C70.8747 16.6448 71.0281 16.594 71.153 16.5006C71.278 16.4071 71.3675 16.2762 71.4075 16.1282L76.0946 1.08888C76.2042 0.793627 76.1279 0.373823 75.6707 0.373823H75.6945Z" fill="#031740"/>
<path fill-rule="evenodd" clip-rule="evenodd" d="M170.066 12.862C170.449 12.8574 170.824 12.9631 171.144 13.1656C171.465 13.3681 171.716 13.6582 171.865 13.9992C172.015 14.3402 172.057 14.7166 171.985 15.0805C171.913 15.4444 171.731 15.7795 171.462 16.0431C171.194 16.3067 170.85 16.487 170.475 16.561C170.1 16.635 169.711 16.5993 169.357 16.4586C169.003 16.3179 168.701 16.0785 168.488 15.7707C168.275 15.463 168.161 15.1009 168.161 14.7304C168.161 14.2388 168.361 13.767 168.717 13.4173C169.074 13.0676 169.559 12.868 170.066 12.862Z" fill="#4593D0"/>
</g>
<defs>
<clipPath id="clip0_168_9038">
<rect width="172" height="17" fill="white"/>
</clipPath>
</defs>
</svg>
